# xmcd
#
# Track frame offsets: 
#        150
#        17358
#        37578
#        57745
#        72919
#        91008
#        104389
#        134824
#        152909
#        171503
#        195474
#        211907
#        237851
#        257874
#        274575
#        300483
#        313564
#
# Disc length: 4390 seconds
#
# Revision: 0
# Processed by: cddbd v1.5.2PL0 Copyright (c) Steve Scherf et al.
# Submitted via: ExactAudioCopyFreeDBPlugin 1.0
#
DISCID=e6112411
DTITLE=Hue and Cry - A's and B's - CD2
DYEAR=2012
DGENRE=Pop
TTITLE0=Looking For Linda
TTITLE1=Strength To Strength
TTITLE2=Sweet Invisibility
TTITLE3=My Salt Heart
TTITLE4=Duty To The Debtor
TTITLE5=He Won't Smile
TTITLE6=Under Neon (Bright Lights, Big City Mix)
TTITLE7=Seen It All
TTITLE8=White Collar
TTITLE9=Poet's Day
TTITLE10=Long Term Lovers Of Pain
TTITLE11=She Makes A Sound
TTITLE12=Stars Crash Down
TTITLE13=Heart Of Saturday Night (Live)
TTITLE14=Rememberance And Gold
TTITLE15=Too Shy To Say
TTITLE16=Dangerous Wreck
EXTD=
EXTT0=
EXTT1=
EXTT2=
EXTT3=
EXTT4=
EXTT5=
EXTT6=
EXTT7=
EXTT8=
EXTT9=
EXTT10=
EXTT11=
EXTT12=
EXTT13=
EXTT14=
EXTT15=
EXTT16=
PLAYORDER=
